<?xml version="1.0" encoding="utf-8"?>
<!-- Generator: Adobe Illustrator 27.3.1, SVG Export Plug-In . SVG Version: 6.00 Build 0)  -->
<svg version="1.1" id="Layer_1" xmlns="http://www.w3.org/2000/svg" xmlns:xlink="http://www.w3.org/1999/xlink" x="0px" y="0px"
	 viewBox="0 0 580.6 648" style="enable-background:new 0 0 580.6 648;" xml:space="preserve">
<style type="text/css">
	.st0{fill:none;stroke:#B2B2B2;stroke-width:0.32;stroke-linejoin:round;stroke-miterlimit:10;}
	.st1{fill:#E94924;stroke:#DC3826;stroke-width:3.2;stroke-linejoin:round;stroke-miterlimit:10;}
	.st2{fill:#9932CC;stroke:#9932CC;stroke-width:0.71;stroke-linecap:round;stroke-linejoin:round;stroke-miterlimit:10;}
	.st3{fill:#4169E1;stroke:#4169E1;stroke-width:0.71;stroke-linecap:round;stroke-linejoin:round;stroke-miterlimit:10;}
	.st4{fill:#FFD03E;stroke:#FAA543;stroke-width:3.2;stroke-linejoin:round;stroke-miterlimit:10;}
	.st5{stroke:#058F45;stroke-width:3.2;stroke-linejoin:round;stroke-miterlimit:10;}
	.st6{fill:none;stroke:#B2B2B2;stroke-width:3.2;stroke-linejoin:round;stroke-miterlimit:10;}
	.st7{fill:#9932CC;}
	.st8{font-family:'Arial-BoldMT';}
	.st9{font-size:11.04px;}
	.st10{fill:#4169E1;}
	.st11{font-family:'ArialMT';}
	.st12{font-size:7.82px;}
	.st13{fill:#6A5ACD;}
	.st14{fill:#231F20;}
	.st15{font-family:'Arial-ItalicMT';}
	.st16{font-size:12px;}
	.st17{fill:none;}
	.st18{enable-background:new    ;}
	.st19{fill:#D64527;}
	.st20{fill:#FFFFFF;stroke:#231F20;stroke-width:0.25;stroke-miterlimit:10;}
	.st21{stroke:#058F45;stroke-width:6;stroke-linejoin:round;stroke-miterlimit:10;}
	.st22{fill:#FFD03E;stroke:#FAA543;stroke-width:6;stroke-linejoin:round;stroke-miterlimit:10;}
	.st23{fill:#E94924;stroke:#DC3826;stroke-width:6;stroke-linejoin:round;stroke-miterlimit:10;}
</style>
<line class="st0" x1="207.6" y1="598.4" x2="575.2" y2="598.4"/>
<line class="st0" x1="207.6" y1="581.2" x2="575.2" y2="581.2"/>
<line class="st0" x1="207.6" y1="563.9" x2="575.2" y2="563.9"/>
<line class="st0" x1="207.6" y1="546.7" x2="575.2" y2="546.7"/>
<line class="st0" x1="207.6" y1="529.5" x2="575.2" y2="529.5"/>
<line class="st0" x1="207.6" y1="512.2" x2="575.2" y2="512.2"/>
<line class="st0" x1="207.6" y1="495" x2="575.2" y2="495"/>
<line class="st0" x1="207.6" y1="477.8" x2="575.2" y2="477.8"/>
<line class="st0" x1="207.6" y1="460.5" x2="575.2" y2="460.5"/>
<line class="st0" x1="207.6" y1="443.3" x2="575.2" y2="443.3"/>
<line class="st0" x1="207.6" y1="426" x2="575.2" y2="426"/>
<line class="st0" x1="207.6" y1="408.8" x2="575.2" y2="408.8"/>
<line class="st0" x1="207.6" y1="391.6" x2="575.2" y2="391.6"/>
<line class="st0" x1="207.6" y1="374.3" x2="575.2" y2="374.3"/>
<line class="st0" x1="207.6" y1="357.1" x2="575.2" y2="357.1"/>
<line class="st0" x1="207.6" y1="339.9" x2="575.2" y2="339.9"/>
<line class="st0" x1="207.6" y1="322.6" x2="575.2" y2="322.6"/>
<line class="st0" x1="207.6" y1="305.4" x2="575.2" y2="305.4"/>
<line class="st0" x1="207.6" y1="288.2" x2="575.2" y2="288.2"/>
<line class="st0" x1="207.6" y1="270.9" x2="575.2" y2="270.9"/>
<line class="st0" x1="207.6" y1="253.7" x2="575.2" y2="253.7"/>
<line class="st0" x1="207.6" y1="236.4" x2="575.2" y2="236.4"/>
<line class="st0" x1="207.6" y1="219.2" x2="575.2" y2="219.2"/>
<line class="st0" x1="207.6" y1="202" x2="575.2" y2="202"/>
<line class="st0" x1="207.6" y1="184.7" x2="575.2" y2="184.7"/>
<line class="st0" x1="207.6" y1="167.5" x2="575.2" y2="167.5"/>
<line class="st0" x1="207.6" y1="150.3" x2="575.2" y2="150.3"/>
<line class="st0" x1="207.6" y1="64.1" x2="575.2" y2="64.1"/>
<line class="st0" x1="207.6" y1="133" x2="575.2" y2="133"/>
<line class="st0" x1="207.6" y1="115.8" x2="575.2" y2="115.8"/>
<line class="st0" x1="207.6" y1="98.6" x2="575.2" y2="98.6"/>
<line class="st0" x1="207.6" y1="81.3" x2="575.2" y2="81.3"/>
<line class="st0" x1="207.6" y1="46.8" x2="575.2" y2="46.8"/>
<line class="st1" x1="374.3" y1="598.4" x2="404.5" y2="598.4"/>
<circle class="st2" cx="374.3" cy="598.4" r="3.6"/>
<circle class="st3" cx="404.5" cy="598.4" r="3.6"/>
<line class="st4" x1="337.4" y1="581.2" x2="385.1" y2="581.2"/>
<circle class="st2" cx="337.4" cy="581.2" r="3.6"/>
<circle class="st3" cx="385.1" cy="581.2" r="3.6"/>
<line class="st1" x1="347.5" y1="563.9" x2="395.2" y2="563.9"/>
<circle class="st2" cx="347.5" cy="563.9" r="3.6"/>
<circle class="st3" cx="395.2" cy="563.9" r="3.6"/>
<line class="st5" x1="342.8" y1="546.7" x2="378.5" y2="546.7"/>
<circle class="st2" cx="342.8" cy="546.7" r="3.6"/>
<circle class="st3" cx="378.5" cy="546.7" r="3.6"/>
<line class="st4" x1="277.2" y1="529.5" x2="303.5" y2="529.5"/>
<circle class="st2" cx="277.2" cy="529.5" r="3.6"/>
<circle class="st3" cx="303.5" cy="529.5" r="3.6"/>
<line class="st4" x1="309.6" y1="512.2" x2="328.2" y2="512.2"/>
<circle class="st2" cx="309.6" cy="512.2" r="3.6"/>
<circle class="st3" cx="328.2" cy="512.2" r="3.6"/>
<line class="st1" x1="379.4" y1="495" x2="427.1" y2="495"/>
<circle class="st2" cx="379.4" cy="495" r="3.6"/>
<circle class="st3" cx="427.1" cy="495" r="3.6"/>
<line class="st4" x1="384.5" y1="477.8" x2="432.2" y2="477.8"/>
<circle class="st2" cx="384.5" cy="477.8" r="3.6"/>
<circle class="st3" cx="432.2" cy="477.8" r="3.6"/>
<line class="st4" x1="278" y1="460.5" x2="296.5" y2="460.5"/>
<circle class="st2" cx="278" cy="460.5" r="3.6"/>
<circle class="st3" cx="296.5" cy="460.5" r="3.6"/>
<line class="st4" x1="359.5" y1="443.3" x2="407.2" y2="443.3"/>
<circle class="st2" cx="359.5" cy="443.3" r="3.6"/>
<circle class="st3" cx="407.2" cy="443.3" r="3.6"/>
<line class="st4" x1="412.8" y1="426" x2="460.5" y2="426"/>
<circle class="st2" cx="412.8" cy="426" r="3.6"/>
<circle class="st3" cx="460.5" cy="426" r="3.6"/>
<line class="st1" x1="511.1" y1="408.8" x2="558.8" y2="408.8"/>
<circle class="st2" cx="511.1" cy="408.8" r="3.6"/>
<circle class="st3" cx="558.8" cy="408.8" r="3.6"/>
<line class="st4" x1="404" y1="391.6" x2="451.7" y2="391.6"/>
<circle class="st2" cx="404" cy="391.6" r="3.6"/>
<circle class="st3" cx="451.7" cy="391.6" r="3.6"/>
<line class="st1" x1="349.1" y1="374.3" x2="386.6" y2="374.3"/>
<circle class="st2" cx="349.1" cy="374.3" r="3.6"/>
<circle class="st3" cx="386.6" cy="374.3" r="3.6"/>
<line class="st1" x1="381.1" y1="357.1" x2="428.8" y2="357.1"/>
<circle class="st2" cx="381.1" cy="357.1" r="3.6"/>
<circle class="st3" cx="428.8" cy="357.1" r="3.6"/>
<line class="st1" x1="304.8" y1="339.9" x2="346.2" y2="339.9"/>
<circle class="st2" cx="304.8" cy="339.9" r="3.6"/>
<circle class="st3" cx="346.2" cy="339.9" r="3.6"/>
<line class="st1" x1="336.7" y1="322.6" x2="345.6" y2="322.6"/>
<circle class="st2" cx="336.7" cy="322.6" r="3.6"/>
<circle class="st3" cx="345.6" cy="322.6" r="3.6"/>
<line class="st4" x1="279.4" y1="305.4" x2="327.1" y2="305.4"/>
<circle class="st2" cx="279.4" cy="305.4" r="3.6"/>
<circle class="st3" cx="327.1" cy="305.4" r="3.6"/>
<line class="st1" x1="295.1" y1="288.2" x2="308.8" y2="288.2"/>
<circle class="st2" cx="295.1" cy="288.2" r="3.6"/>
<circle class="st3" cx="308.8" cy="288.2" r="3.6"/>
<line class="st4" x1="415.2" y1="270.9" x2="462.9" y2="270.9"/>
<circle class="st2" cx="415.2" cy="270.9" r="3.6"/>
<circle class="st3" cx="462.9" cy="270.9" r="3.6"/>
<line class="st4" x1="355.2" y1="253.7" x2="402.9" y2="253.7"/>
<circle class="st2" cx="355.2" cy="253.7" r="3.6"/>
<circle class="st3" cx="402.9" cy="253.7" r="3.6"/>
<line class="st4" x1="353.2" y1="236.4" x2="400.9" y2="236.4"/>
<circle class="st2" cx="353.2" cy="236.4" r="3.6"/>
<circle class="st3" cx="400.9" cy="236.4" r="3.6"/>
<line class="st4" x1="367.6" y1="219.2" x2="401.2" y2="219.2"/>
<circle class="st2" cx="367.6" cy="219.2" r="3.6"/>
<circle class="st3" cx="401.2" cy="219.2" r="3.6"/>
<line class="st6" x1="301.8" y1="202" x2="312.8" y2="202"/>
<circle class="st2" cx="301.8" cy="202" r="3.6"/>
<circle class="st3" cx="312.8" cy="202" r="3.6"/>
<line class="st4" x1="235.2" y1="184.7" x2="282.9" y2="184.7"/>
<circle class="st2" cx="235.2" cy="184.7" r="3.6"/>
<circle class="st3" cx="282.9" cy="184.7" r="3.6"/>
<line class="st5" x1="412.1" y1="167.5" x2="457.1" y2="167.5"/>
<circle class="st2" cx="412.1" cy="167.5" r="3.6"/>
<circle class="st3" cx="457.1" cy="167.5" r="3.6"/>
<line class="st1" x1="434.2" y1="150.3" x2="474.1" y2="150.3"/>
<circle class="st2" cx="434.2" cy="150.3" r="3.6"/>
<circle class="st3" cx="474.1" cy="150.3" r="3.6"/>
<line class="st5" x1="450.7" y1="133" x2="498.4" y2="133"/>
<circle class="st2" cx="450.7" cy="133" r="3.6"/>
<circle class="st3" cx="498.4" cy="133" r="3.6"/>
<line class="st5" x1="429.9" y1="115.8" x2="477.6" y2="115.8"/>
<circle class="st2" cx="429.9" cy="115.8" r="3.6"/>
<circle class="st3" cx="477.6" cy="115.8" r="3.6"/>
<line class="st5" x1="457" y1="98.6" x2="504.7" y2="98.6"/>
<circle class="st2" cx="457" cy="98.6" r="3.6"/>
<circle class="st3" cx="504.7" cy="98.6" r="3.6"/>
<line class="st5" x1="439.9" y1="81.3" x2="487.6" y2="81.3"/>
<circle class="st2" cx="439.9" cy="81.3" r="3.6"/>
<circle class="st3" cx="487.6" cy="81.3" r="3.6"/>
<line class="st1" x1="435.4" y1="64.1" x2="483.1" y2="64.1"/>
<circle class="st2" cx="435.4" cy="64.1" r="3.6"/>
<circle class="st3" cx="483.1" cy="64.1" r="3.6"/>
<line class="st5" x1="362.9" y1="46.8" x2="386.4" y2="46.8"/>
<circle class="st2" cx="362.9" cy="46.8" r="3.6"/>
<circle class="st3" cx="386.4" cy="46.8" r="3.6"/>
<text transform="matrix(1 0 0 1 346.405 29.0878)" class="st7 st8 st9">LAI</text>
<text transform="matrix(1 0 0 1 384.3724 29.0746)" class="st10 st8 st9">LAI (raw)</text>
<text transform="matrix(1 0 0 1 414.298 601.21)" class="st10 st11 st12">25.86</text>
<text transform="matrix(1 0 0 1 394.898 583.97)" class="st10 st11 st12">23.57</text>
<text transform="matrix(1 0 0 1 404.978 566.74)" class="st10 st11 st12">24.76</text>
<text transform="matrix(1 0 0 1 388.288 549.5)" class="st10 st11 st12">22.79</text>
<text transform="matrix(1 0 0 1 313.308 532.26)" class="st10 st11 st12">13.94</text>
<text transform="matrix(1 0 0 1 337.958 515.03)" class="st10 st11 st12">16.85</text>
<text transform="matrix(1 0 0 1 436.918 497.79)" class="st10 st11 st12">28.53</text>
<text transform="matrix(1 0 0 1 441.998 480.56)" class="st10 st11 st12">29.13</text>
<text transform="matrix(1 0 0 1 305.988 463.32)" class="st10 st11 st12">13.11</text>
<text transform="matrix(1 0 0 1 416.918 446.08)" class="st10 st11 st12">26.17</text>
<text transform="matrix(1 0 0 1 470.298 428.85)" class="st10 st11 st12">32.47</text>
<text transform="matrix(1 0 0 1 551.2025 419.4934)" class="st10 st11 st12">44.07</text>
<text transform="matrix(1 0 0 1 461.488 394.37)" class="st10 st11 st12">31.43</text>
<text transform="matrix(1 0 0 1 396.418 377.14)" class="st10 st11 st12">23.75</text>
<text transform="matrix(1 0 0 1 438.608 359.9)" class="st10 st11 st12">28.73</text>
<text transform="matrix(1 0 0 1 356.008 342.66)" class="st10 st11 st12">18.98</text>
<text transform="matrix(1 0 0 1 353.158 325.43)" class="st10 st11 st12">18.9</text>
<text transform="matrix(1 0 0 1 336.858 308.19)" class="st10 st11 st12">16.72</text>
<text transform="matrix(1 0 0 1 318.558 290.95)" class="st10 st11 st12">14.56</text>
<text transform="matrix(1 0 0 1 472.668 273.72)" class="st10 st11 st12">32.75</text>
<text transform="matrix(1 0 0 1 412.688 256.48)" class="st10 st11 st12">25.67</text>
<text transform="matrix(1 0 0 1 410.658 239.25)" class="st10 st11 st12">25.43</text>
<text transform="matrix(1 0 0 1 410.988 222.01)" class="st10 st11 st12">25.47</text>
<text transform="matrix(1 0 0 1 322.538 204.77)" class="st10 st11 st12">15.03</text>
<text transform="matrix(1 0 0 1 290.178 187.54)" class="st10 st11 st12">11.5</text>
<text transform="matrix(1 0 0 1 466.908 170.3)" class="st10 st11 st12">32.07</text>
<text transform="matrix(1 0 0 1 483.848 153.06)" class="st10 st11 st12">34.07</text>
<text transform="matrix(1 0 0 1 492.828 66.88)" class="st10 st11 st12">35.13</text>
<text transform="matrix(1 0 0 1 508.1681 135.83)" class="st10 st11 st12">36.94</text>
<text transform="matrix(1 0 0 1 487.408 118.59)" class="st10 st11 st12">34.49</text>
<text transform="matrix(1 0 0 1 514.438 101.35)" class="st10 st11 st12">37.68</text>
<text transform="matrix(1 0 0 1 497.408 84.12)" class="st10 st11 st12">35.67</text>
<text transform="matrix(1 0 0 1 396.168 49.64)" class="st10 st11 st12">23.72</text>
<text transform="matrix(1 0 0 1 344.9489 601.21)" class="st7 st11 st12">22.29</text>
<text transform="matrix(1 0 0 1 308.0889 583.97)" class="st7 st11 st12">17.94</text>
<text transform="matrix(1 0 0 1 318.1789 566.74)" class="st7 st11 st12">19.13</text>
<text transform="matrix(1 0 0 1 313.4289 549.5)" class="st7 st11 st12">18.57</text>
<text transform="matrix(1 0 0 1 247.8589 532.26)" class="st7 st11 st12">10.83</text>
<text transform="matrix(1 0 0 1 280.2189 515.03)" class="st7 st11 st12">14.65</text>
<text transform="matrix(1 0 0 1 356.6381 497.79)" class="st7 st11 st12">22.9</text>
<text transform="matrix(1 0 0 1 361.718 480.56)" class="st7 st11 st12">23.5</text>
<text transform="matrix(1 0 0 1 248.6189 463.32)" class="st7 st11 st12">10.92</text>
<text transform="matrix(1 0 0 1 330.1189 446.08)" class="st7 st11 st12">20.54</text>
<text transform="matrix(1 0 0 1 383.4989 428.85)" class="st7 st11 st12">26.84</text>
<text transform="matrix(1 0 0 1 481.769 411.61)" class="st7 st11 st12">38.44</text>
<text transform="matrix(1 0 0 1 381.2081 394.37)" class="st7 st11 st12">25.8</text>
<text transform="matrix(1 0 0 1 319.7889 377.14)" class="st7 st11 st12">19.32</text>
<text transform="matrix(1 0 0 1 358.3281 359.9)" class="st7 st11 st12">23.1</text>
<text transform="matrix(1 0 0 1 275.4789 342.66)" class="st7 st11 st12">14.09</text>
<text transform="matrix(1 0 0 1 307.4189 325.43)" class="st7 st11 st12">17.86</text>
<text transform="matrix(1 0 0 1 250.9293 308.19)" class="st7 st11 st12">11.09</text>
<text transform="matrix(1 0 0 1 265.7289 290.95)" class="st7 st11 st12">12.94</text>
<text transform="matrix(1 0 0 1 385.8689 273.72)" class="st7 st11 st12">27.12</text>
<text transform="matrix(1 0 0 1 325.8889 256.48)" class="st7 st11 st12">20.04</text>
<text transform="matrix(1 0 0 1 330.3681 239.25)" class="st7 st11 st12">19.8</text>
<text transform="matrix(1 0 0 1 344.778 222.01)" class="st7 st11 st12">21.5</text>
<text transform="matrix(1 0 0 1 272.5089 204.77)" class="st7 st11 st12">13.74</text>
<text transform="matrix(1 0 0 1 212.358 187.54)" class="st7 st11 st12">5.87</text>
<text transform="matrix(1 0 0 1 382.7289 170.3)" class="st7 st11 st12">26.75</text>
<text transform="matrix(1 0 0 1 404.8489 153.06)" class="st7 st11 st12">29.36</text>
<text transform="matrix(1 0 0 1 412.5481 66.88)" class="st7 st11 st12">29.5</text>
<text transform="matrix(1 0 0 1 421.3689 135.83)" class="st7 st11 st12">31.31</text>
<text transform="matrix(1 0 0 1 400.6089 118.59)" class="st7 st11 st12">28.86</text>
<text transform="matrix(1 0 0 1 427.6389 101.35)" class="st7 st11 st12">32.05</text>
<text transform="matrix(1 0 0 1 410.6089 84.12)" class="st7 st11 st12">30.04</text>
<text transform="matrix(1 0 0 1 333.5989 49.64)" class="st7 st11 st12">20.95</text>
<text transform="matrix(1 0 0 1 384.7699 594.22)" class="st13 st11 st12">HiFi</text>
<text transform="matrix(1 0 0 1 357.0753 576.98)" class="st13 st11 st12">HiFi</text>
<text transform="matrix(1 0 0 1 366.7199 559.74)" class="st13 st11 st12">HiFi</text>
<text transform="matrix(1 0 0 1 353.6235 542.51)" class="st13 st11 st12">HiFi</text>
<text transform="matrix(1 0 0 1 285.2928 525.27)" class="st13 st11 st12">CLR</text>
<text transform="matrix(1 0 0 1 313.3712 508.04)" class="st13 st11 st12">ONT</text>
<text transform="matrix(1 0 0 1 398.6599 490.8)" class="st13 st11 st12">HiFi</text>
<text transform="matrix(1 0 0 1 403.3127 473.56)" class="st13 st11 st12">CLR</text>
<text transform="matrix(1 0 0 1 283.0252 456.33)" class="st13 st11 st12">HiFi</text>
<text transform="matrix(1 0 0 1 379.1053 439.09)" class="st13 st11 st12">HiFi</text>
<text transform="matrix(1 0 0 1 432.4753 421.85)" class="st13 st11 st12">HiFi</text>
<text transform="matrix(1 0 0 1 530.3199 404.62)" class="st13 st11 st12">HiFi</text>
<text transform="matrix(1 0 0 1 422.7928 387.38)" class="st13 st11 st12">CLR</text>
<text transform="matrix(1 0 0 1 363.2499 370.14)" class="st13 st11 st12">HiFi</text>
<text transform="matrix(1 0 0 1 400.3599 352.91)" class="st13 st11 st12">HiFi</text>
<text transform="matrix(1 0 0 1 320.89 335.67)" class="st13 st11 st12">HiFi</text>
<text transform="matrix(1 0 0 1 336.5199 318.43)" class="st13 st11 st12">HiFi</text>
<text transform="matrix(1 0 0 1 298.1727 301.2)" class="st13 st11 st12">CLR</text>
<text transform="matrix(1 0 0 1 297.2899 283.96)" class="st13 st11 st12">HiFi</text>
<text transform="matrix(1 0 0 1 422.9828 266.72)" class="st13 st11 st12">CLR</text>
<text transform="matrix(1 0 0 1 374.8652 249.49)" class="st13 st11 st12">HiFi</text>
<text transform="matrix(1 0 0 1 372.8352 232.25)" class="st13 st11 st12">HiFi</text>
<text transform="matrix(1 0 0 1 380.2052 215.02)" class="st13 st11 st12">HiFi</text>
<text transform="matrix(1 0 0 1 303.1053 197.78)" class="st13 st11 st12">HiFi</text>
<text transform="matrix(1 0 0 1 254.8152 180.54)" class="st13 st11 st12">HiFi</text>
<text transform="matrix(1 0 0 1 427.5835 163.31)" class="st13 st11 st12">HiFi</text>
<text transform="matrix(1 0 0 1 449.4999 146.07)" class="st13 st11 st12">HiFi</text>
<text transform="matrix(1 0 0 1 454.5799 59.89)" class="st13 st11 st12">HiFi</text>
<text transform="matrix(1 0 0 1 467.5235 128.83)" class="st13 st11 st12">HiFi</text>
<text transform="matrix(1 0 0 1 446.7735 111.6)" class="st13 st11 st12">HiFi</text>
<text transform="matrix(1 0 0 1 473.7935 94.36)" class="st13 st11 st12">HiFi</text>
<text transform="matrix(1 0 0 1 456.7635 77.12)" class="st13 st11 st12">HiFi</text>
<text transform="matrix(1 0 0 1 366.771 42.65)" class="st13 st11 st12">CLR</text>
<text transform="matrix(0.841 0 0 1 59.489 600.5769)" class="st14 st15 st16">Andropogon chinensis (1.44 Gb)</text>
<text transform="matrix(0.841 0 0 1 67.9052 583.3345)" class="st14 st15 st16">Andropogon gerardii (3.07 Gb)</text>
<text transform="matrix(0.841 0 0 1 53.8763 566.0916)" class="st14 st15 st16">Andropogon tenuilfolius (1.80 Gb)</text>
<text transform="matrix(0.841 0 0 1 59.4985 548.8492)" class="st14 st15 st16">Andropogon virginicus (1.05 Gb)</text>
<rect x="46.3" y="523.6" class="st17" width="158.5" height="12"/>
<text transform="matrix(0.841 0 0 1 53.8862 533.8716)" class="st14 st15 st16">Bothriochloa laguroides (4.12 Gb)</text>
<rect x="50.1" y="506.3" class="st17" width="154.7" height="11.4"/>
<text transform="matrix(0.841 0 0 1 52.2159 516.6292)" class="st14 st15 st16">Chrysopogon serrulatus (0.68 Gb)</text>
<rect x="61.6" y="489.1" class="st17" width="143.1" height="12"/>
<text transform="matrix(0.841 0 0 1 63.9985 499.3856)" class="st14 st15 st16">Cymbopogon citratus (2.12 Gb)</text>
<rect x="53.4" y="471.8" class="st17" width="151.4" height="11.4"/>
<text transform="matrix(0.841 0 0 1 57.2666 482.144)" class="st14 st15 st16">Cymbopogon refractus (1.04 Gb)</text>
<rect x="55.2" y="454.6" class="st17" width="149.6" height="10.8"/>
<text transform="matrix(0.841 0 0 1 60.6324 464.9005)" class="st14 st15 st16">Elionorus tripsacoides (4.23 Gb)</text>
<rect x="55.4" y="437.4" class="st17" width="149.4" height="10.8"/>
<text transform="matrix(0.841 0 0 1 57.287 447.659)" class="st14 st15 st16">Hemarthria compressa (3.52 Gb)</text>
<rect x="46.3" y="420.1" class="st17" width="158.5" height="12.7"/>
<text transform="matrix(0.841 0 0 1 56.6907 430.4164)" class="st14 st15 st16">Heteropogon contortus (1.24 Gb)</text>
<rect x="60" y="402.9" class="st17" width="144.7" height="12.1"/>
<text transform="matrix(0.841 0 0 1 65.1307 413.173)" class="st14 st15 st16">Ischaemum rugosum (0.65 Gb)</text>
<rect x="92.8" y="385.6" class="st17" width="112" height="13.4"/>
<text transform="matrix(0.841 0 0 1 97.65 395.9314)" class="st14 st15 st16">Poa pratensis (3.52 Gb)</text>
<rect x="39.6" y="368.4" class="st17" width="165.2" height="11.1"/>
<text transform="matrix(0.841 0 0 1 46.5936 378.6879)" class="st14 st15 st16">Pogonatherum paniceum (0.91 Gb)</text>
<rect x="44.3" y="351.2" class="st17" width="160.5" height="12.4"/>
<text transform="matrix(0.841 0 0 1 53.8909 361.4453)" class="st14 st15 st16">Rhytacne rottboelloides (1.74 Gb)</text>
<rect x="54.9" y="333.9" class="st17" width="149.9" height="11.5"/>
<text transform="matrix(0.841 0 0 1 56.6959 344.2038)" class="st14 st15 st16">Rottboellia tuberculosa (1.78 Gb)</text>
<rect x="16.5" y="316.7" class="st17" width="188.3" height="14.5"/>
<text transform="matrix(0.841 0 0 1 23.0836 326.9603)" class="st14 st15 st16">Schizachyrium microstachyum (1.05 Gb)</text>
<rect x="36.9" y="299.4" class="st17" width="167.9" height="12.5"/>
<text transform="matrix(0.841 0 0 1 44.3853 309.7182)" class="st14 st15 st16">Schizachyrium scoparium (2.09 Gb)</text>
<rect x="65.3" y="282.2" class="st17" width="139.5" height="12.2"/>
<text transform="matrix(0.841 0 0 1 67.8967 292.4752)" class="st14 st15 st16">Thelopogon elegans (1.66 Gb)</text>
<rect x="78.2" y="264.9" class="st17" width="126.6" height="12.2"/>
<text transform="matrix(0.841 0 0 1 79.7024 275.2327)" class="st14 st15 st16">Themeda triandra (0.86 Gb)</text>
<rect x="-8" y="247.7" class="st17" width="212.8" height="12.9"/>
<text transform="matrix(0.841 0 0 1 5.615433e-02 257.9931)" class="st18"><tspan x="0" y="0" class="st14 st15 st16">Tripsacum dactyloides </tspan><tspan x="122.7" y="0" class="st14 st11 st16">McKain3345</tspan><tspan x="189.4" y="0" class="st14 st15 st16"> (6.00 Gb)</tspan></text>
<rect x="11.8" y="230.5" class="st17" width="193" height="12.6"/>
<text transform="matrix(0.841 0 0 1 18.5693 240.751)" class="st18"><tspan x="0" y="0" class="st14 st15 st16">Tripsacum dactyloides </tspan><tspan x="122.7" y="0" class="st14 st11 st16">northern </tspan><tspan x="170.7" y="0" class="st14 st15 st16">(3.00 Gb)</tspan></text>
<rect x="8.2" y="213.2" class="st17" width="196.5" height="12.6"/>
<text transform="matrix(0.841 0 0 1 16.8848 223.508)" class="st18"><tspan x="0" y="0" class="st14 st15 st16">Tripsacum dactyloides </tspan><tspan x="122.7" y="0" class="st14 st11 st16">southern </tspan><tspan x="172.7" y="0" class="st14 st15 st16">(3.00 Gb)</tspan></text>
<rect x="57.7" y="196" class="st17" width="147.1" height="10.9"/>
<text transform="matrix(0.841 0 0 1 71.8726 206.2625)" class="st14 st15 st16">Urelytrum digitatum (5.43 Gb)</text>
<rect x="77" y="178.7" class="st17" width="127.8" height="12.3"/>
<text transform="matrix(0.841 0 0 1 83.063 189.02)" class="st14 st15 st16">Vossia cuspidata (1.56 Gb)</text>
<rect x="51.4" y="161.5" class="st17" width="153.4" height="11.1"/>
<text transform="matrix(0.841 0 0 1 60.6172 171.7799)" class="st18"><tspan x="0" y="0" class="st14 st15 st16">Zea diploperennis </tspan><tspan x="98.7" y="0" class="st14 st11 st16">gigi </tspan><tspan x="120.7" y="0" class="st14 st15 st16">(2.80 Gb)</tspan></text>
<rect x="41.8" y="144.2" class="st17" width="163" height="10.4"/>
<text transform="matrix(0.841 0 0 1 48.2884 154.5378)" class="st18"><tspan x="0" y="0" class="st14 st15 st16">Zea diploperennis </tspan><tspan x="98.7" y="0" class="st14 st11 st16">momo </tspan><tspan x="135.4" y="0" class="st14 st15 st16">(2.80 Gb)</tspan></text>
<rect x="5.2" y="127" class="st17" width="199.5" height="10.5"/>
<text transform="matrix(0.841 0 0 1 21.9397 137.2953)" class="st18"><tspan x="0" y="0" class="st14 st15 st16">Zea mays ssp mexicana </tspan><tspan x="132.7" y="0" class="st14 st11 st16">TIL18 </tspan><tspan x="166.7" y="0" class="st14 st15 st16">(2.10 Gb)</tspan></text>
<rect x="9.9" y="109.8" class="st17" width="194.9" height="10.5"/>
<text transform="matrix(0.841 0 0 1 21.9401 120.0523)" class="st18"><tspan x="0" y="0" class="st14 st15 st16">Zea mays ssp mexicana </tspan><tspan x="132.7" y="0" class="st14 st11 st16">TIL25 </tspan><tspan x="166.7" y="0" class="st14 st15 st16">(2.10 Gb)</tspan></text>
<rect x="2" y="92.5" class="st17" width="202.8" height="11.8"/>
<text transform="matrix(0.841 0 0 1 14.0949 102.8098)" class="st18"><tspan x="0" y="0" class="st14 st15 st16">Zea mays ssp parviglumis </tspan><tspan x="142" y="0" class="st14 st11 st16">TIL01 </tspan><tspan x="176.1" y="0" class="st14 st15 st16">(2.66 Gb)</tspan></text>
<rect x="-15.8" y="75.5" class="st17" width="220.6" height="12.5"/>
<text transform="matrix(0.841 0 0 1 14.0951 85.7627)" class="st18"><tspan x="0" y="0" class="st14 st15 st16">Zea mays ssp parviglumis </tspan><tspan x="142" y="0" class="st14 st11 st16">TIL11 </tspan><tspan x="176.1" y="0" class="st14 st15 st16">(2.47 Gb)</tspan></text>
<rect x="-19.7" y="58.1" class="st17" width="224.5" height="13"/>
<text transform="matrix(0.841 0 0 1 5.6385 68.3608)" class="st14 st15 st16">Zea mays ssp.huehuetenangensis (5.00 Gb)</text>
<rect x="20.1" y="40.3" class="st17" width="184.7" height="11.2"/>
<text transform="matrix(0.841 0 0 1 35.4081 50.5584)" class="st18"><tspan x="0" y="0" class="st19 st15 st16">Zea mays ssp.mays </tspan><tspan x="110" y="0" class="st19 st11 st16">B73.v5 </tspan><tspan x="150.7" y="0" class="st19 st15 st16">(2.30 Gb)</tspan></text>
<rect x="444" y="550.4" class="st20" width="126" height="45.4"/>
<line class="st21" x1="446" y1="588" x2="466" y2="588"/>
<line class="st22" x1="446" y1="573.9" x2="466" y2="573.9"/>
<line class="st23" x1="446" y1="559.9" x2="466" y2="559.9"/>
<text transform="matrix(1 0 0 1 472.351 590.9187)" class="st11 st16">pseudomolecules</text>
<text transform="matrix(1 0 0 1 472.3503 576.8005)" class="st11 st16">scaffolds</text>
<text transform="matrix(1 0 0 1 472.3509 562.6823)" class="st11 st16">contigs</text>
</svg>
